<?xml version="1.0"?>
<svg xmlns="http://www.w3.org/2000/svg" xmlns:xlink="http://www.w3.org/1999/xlink" version="1.1" id="Layer_1" x="0px" y="0px" viewBox="0 0 512.002 512.002" style="enable-background:new 0 0 512.002 512.002;" xml:space="preserve" width="512px" height="512px" class=""><g><g>
	<g>
		<path style="fill:#8DA3E0" d="M447.785,72.745c-2.185,0-4.369-0.836-6.033-2.5c-3.337-3.337-3.337-8.738,0-12.066l18.569-18.56    c3.328-3.328,8.73-3.328,12.066,0c3.328,3.337,3.328,8.738,0,12.066l-18.569,18.56C452.154,71.909,449.97,72.745,447.785,72.745" data-original="#68DDC1" class="active-path" data-old_color="#8CA3E0"/>
		<path style="fill:#8DA3E0" d="M45.652,474.879c-2.185,0-4.369-0.836-6.033-2.5c-3.337-3.337-3.337-8.738,0-12.066l18.569-18.56    c3.328-3.328,8.73-3.328,12.066,0c3.328,3.337,3.328,8.738,0,12.066l-18.569,18.56C50.021,474.042,47.836,474.879,45.652,474.879" data-original="#68DDC1" class="active-path" data-old_color="#8CA3E0"/>
		<path style="fill:#8DA3E0" d="M503.468,128h-30.302c-4.719,0-8.533-3.823-8.533-8.533c0-4.71,3.814-8.533,8.533-8.533h30.302    c4.719,0,8.533,3.823,8.533,8.533C512.002,124.177,508.187,128,503.468,128" data-original="#68DDC1" class="active-path" data-old_color="#8CA3E0"/>
		<path style="fill:#8DA3E0" d="M392.552,47.371c-4.71,0-8.533-3.814-8.533-8.533l-0.017-30.302c0-4.71,3.814-8.533,8.525-8.533    h0.009c4.71,0,8.533,3.814,8.533,8.525l0.017,30.31c0,4.71-3.814,8.533-8.525,8.533H392.552z" data-original="#68DDC1" class="active-path" data-old_color="#8CA3E0"/>
		<path style="fill:#8DA3E0" d="M38.835,401.066H8.533c-4.719,0-8.533-3.823-8.533-8.533S3.814,384,8.533,384h30.302    c4.719,0,8.533,3.823,8.533,8.533S43.554,401.066,38.835,401.066" data-original="#68DDC1" class="active-path" data-old_color="#8CA3E0"/>
		<path style="fill:#8DA3E0" d="M119.468,512c-4.719,0-8.533-3.823-8.533-8.533v-30.302c0-4.719,3.814-8.533,8.533-8.533    c4.719,0,8.533,3.814,8.533,8.533v30.302C128.002,508.177,124.187,512,119.468,512" data-original="#68DDC1" class="active-path" data-old_color="#8CA3E0"/>
		<path style="fill:#8DA3E0" d="M398.293,295.466c-2.185,0-4.369-0.836-6.033-2.5l-24.738-24.747    c-3.337-3.328-3.337-8.738,0-12.066c3.328-3.337,8.73-3.337,12.066,0l24.738,24.747c3.337,3.337,3.337,8.738,0,12.066    C402.662,294.63,400.478,295.466,398.293,295.466" data-original="#68DDC1" class="active-path" data-old_color="#8CA3E0"/>
		<path style="fill:#8DA3E0" d="M472.535,221.225c-2.185,0-4.369-0.836-6.033-2.5l-24.747-24.747c-3.337-3.328-3.337-8.73,0-12.066    c3.328-3.337,8.73-3.337,12.066,0l24.747,24.747c3.337,3.328,3.337,8.73,0,12.066C476.904,220.388,474.72,221.225,472.535,221.225    " data-original="#68DDC1" class="active-path" data-old_color="#8CA3E0"/>
		<path style="fill:#8DA3E0" d="M324.052,72.745c-2.185,0-4.369-0.836-6.033-2.5L293.28,45.498c-3.337-3.328-3.337-8.738,0-12.066    c3.328-3.337,8.73-3.337,12.066,0l24.738,24.747c3.337,3.337,3.337,8.738,0,12.066C328.421,71.909,326.236,72.745,324.052,72.745" data-original="#68DDC1" class="active-path" data-old_color="#8CA3E0"/>
		<path style="fill:#8DA3E0" d="M354.985,326.4c-2.185,0-4.369-0.836-6.033-2.5l-18.56-18.56c-3.328-3.328-3.328-8.73,0-12.066    c3.337-3.328,8.738-3.328,12.066,0l18.56,18.56c3.337,3.337,3.337,8.73,0,12.066C359.354,325.563,357.169,326.4,354.985,326.4" data-original="#68DDC1" class="active-path" data-old_color="#8CA3E0"/>
		<path style="fill:#8DA3E0" d="M324.052,369.708c-2.185,0-4.369-0.836-6.033-2.5l-24.738-24.747    c-3.337-3.337-3.337-8.738,0-12.066c3.328-3.337,8.73-3.337,12.066,0l24.738,24.747c3.337,3.337,3.337,8.738,0,12.066    C328.421,368.872,326.236,369.708,324.052,369.708" data-original="#68DDC1" class="active-path" data-old_color="#8CA3E0"/>
		<path style="fill:#8DA3E0" d="M280.752,400.641c-2.185,0-4.369-0.836-6.033-2.5l-18.569-18.56c-3.328-3.328-3.328-8.738,0-12.066    c3.337-3.337,8.738-3.337,12.066,0l18.569,18.56c3.337,3.328,3.337,8.73,0,12.066    C285.121,399.805,282.936,400.641,280.752,400.641" data-original="#68DDC1" class="active-path" data-old_color="#8CA3E0"/>
		<path style="fill:#8DA3E0" d="M138.452,258.345c-2.185,0-4.369-0.836-6.033-2.5l-18.56-18.56c-3.328-3.328-3.328-8.73,0-12.066    c3.337-3.328,8.738-3.328,12.066,0l18.56,18.56c3.337,3.337,3.337,8.73,0,12.066C142.821,257.509,140.636,258.345,138.452,258.345    " data-original="#68DDC1" class="active-path" data-old_color="#8CA3E0"/>
		<path style="fill:#8DA3E0" d="M249.818,443.945c-2.185,0-4.369-0.836-6.033-2.5l-24.747-24.747c-3.337-3.328-3.337-8.73,0-12.066    c3.328-3.337,8.73-3.337,12.066,0l24.747,24.747c3.337,3.328,3.337,8.73,0,12.066    C254.188,443.109,252.003,443.945,249.818,443.945" data-original="#68DDC1" class="active-path" data-old_color="#8CA3E0"/>
		<path style="fill:#8DA3E0" d="M206.51,474.879c-2.185,0-4.369-0.836-6.033-2.5l-18.56-18.56c-3.328-3.328-3.328-8.73,0-12.066    c3.337-3.328,8.738-3.328,12.066,0l18.56,18.56c3.337,3.337,3.337,8.73,0,12.066C210.879,474.042,208.695,474.879,206.51,474.879" data-original="#68DDC1" class="active-path" data-old_color="#8CA3E0"/>
		<path style="fill:#8DA3E0" d="M249.818,146.987c-2.185,0-4.369-0.836-6.033-2.5l-24.747-24.747c-3.337-3.328-3.337-8.73,0-12.066    c3.328-3.337,8.73-3.337,12.066,0l24.747,24.747c3.337,3.328,3.337,8.73,0,12.066    C254.188,146.151,252.003,146.987,249.818,146.987" data-original="#68DDC1" class="active-path" data-old_color="#8CA3E0"/>
		<path style="fill:#8DA3E0" d="M212.693,184.108c-2.185,0-4.369-0.836-6.033-2.5l-18.56-18.56c-3.328-3.337-3.328-8.738,0-12.066    c3.337-3.337,8.738-3.337,12.066,0l18.56,18.56c3.337,3.337,3.337,8.738,0,12.066    C217.062,183.272,214.878,184.108,212.693,184.108" data-original="#68DDC1" class="active-path" data-old_color="#8CA3E0"/>
		<path style="fill:#8DA3E0" d="M101.335,295.466c-2.185,0-4.369-0.836-6.033-2.5l-24.747-24.747c-3.337-3.328-3.337-8.73,0-12.066    c3.328-3.337,8.73-3.337,12.066,0l24.747,24.747c3.337,3.328,3.337,8.73,0,12.066C105.704,294.63,103.52,295.466,101.335,295.466" data-original="#68DDC1" class="active-path" data-old_color="#8CA3E0"/>
		<path style="fill:#8DA3E0" d="M64.218,332.587c-2.185,0-4.369-0.836-6.033-2.5l-18.569-18.56c-3.328-3.328-3.328-8.738,0-12.066    c3.337-3.337,8.738-3.337,12.066,0l18.569,18.56c3.337,3.328,3.337,8.73,0,12.066C68.588,331.751,66.403,332.587,64.218,332.587" data-original="#68DDC1" class="active-path" data-old_color="#8CA3E0"/>
		<path style="fill:#8DA3E0" d="M175.577,221.225c-2.185,0-4.369-0.836-6.033-2.5l-24.747-24.747c-3.337-3.328-3.337-8.73,0-12.066    c3.328-3.337,8.73-3.337,12.066,0l24.747,24.747c3.337,3.328,3.337,8.73,0,12.066    C179.946,220.388,177.761,221.225,175.577,221.225" data-original="#68DDC1" class="active-path" data-old_color="#8CA3E0"/>
		<path style="fill:#8DA3E0" d="M286.935,109.866c-2.185,0-4.369-0.836-6.033-2.5l-18.56-18.56c-3.328-3.328-3.328-8.73,0-12.066    c3.337-3.328,8.738-3.328,12.066,0l18.56,18.56c3.337,3.337,3.337,8.73,0,12.066C291.304,109.03,289.12,109.866,286.935,109.866" data-original="#68DDC1" class="active-path" data-old_color="#8CA3E0"/>
		<path style="fill:#8DA3E0" d="M429.227,252.158c-2.185,0-4.369-0.836-6.033-2.5l-18.56-18.56c-3.328-3.328-3.328-8.73,0-12.066    c3.337-3.328,8.738-3.328,12.066,0l18.56,18.56c3.337,3.337,3.337,8.73,0,12.066C433.596,251.322,431.411,252.158,429.227,252.158    " data-original="#68DDC1" class="active-path" data-old_color="#8CA3E0"/>
	</g>
	<path style="fill:#5680E9" d="M64.218,447.787L64.218,447.787c-34.176-34.167-34.176-89.566,0-123.733L324.05,64.214   c34.176-34.167,89.566-34.167,123.733,0c34.176,34.167,34.176,89.566,0,123.733l-259.831,259.84   C153.776,481.955,98.386,481.955,64.218,447.787" data-original="#26B99A" class="" data-old_color="#5680e9"/>
	<g>
		<path style="fill:#8DA3E0" d="M293.327,202.746c-2.261,0-4.54-0.879-6.238-2.577c-12.646-12.655,0.751-37.572,18.56-55.381    c3.337-3.328,8.738-3.328,12.066,0c3.337,3.337,3.337,8.738,0,12.075c-15.582,15.582-19.43,28.885-18.33,31.548    c3.328,3.337,3.217,8.585-0.128,11.913C297.636,201.952,295.485,202.746,293.327,202.746" data-original="#68DDC1" class="active-path" data-old_color="#8CA3E0"/>
		<path style="fill:#8DA3E0" d="M406.085,157.125c-17.101,0-39.398-13.474-57.131-31.198c-3.337-3.328-3.337-8.738,0-12.066    c3.328-3.337,8.73-3.337,12.066,0c24.115,24.098,45.559,29.005,49.801,24.747c3.328-3.337,8.73-3.337,12.066,0    c3.328,3.337,3.328,8.738,0,12.066C418.416,155.145,412.63,157.125,406.085,157.125" data-original="#68DDC1" class="active-path" data-old_color="#8CA3E0"/>
		<path style="fill:#8DA3E0" d="M200.152,262.324c0.009,0.009,0.017,0.009,0.017,0.009S200.16,262.333,200.152,262.324     M195.791,277.514c-2.756,0-5.427-0.845-7.689-3.106c-3.337-3.337-3.337-8.73,0-12.066c2.278-2.287,5.521-2.995,8.422-2.159    c4.045-1.596,14.967-8.866,28.698-22.588c3.328-3.337,8.73-3.337,12.066-0.009c3.328,3.337,3.328,8.738,0,12.075    c-8.653,8.653-17.527,16.154-24.986,21.137C209.112,272.923,202.217,277.514,195.791,277.514" data-original="#68DDC1" class="active-path" data-old_color="#8CA3E0"/>
		<path style="fill:#8DA3E0" d="M268.227,293.279l0.009,0.009L268.227,293.279z M262.185,307.846c-2.185,0-4.378-0.836-6.042-2.509    c-3.337-3.345-12.211-12.228,30.942-55.373c3.337-3.328,8.73-3.328,12.066,0c3.337,3.337,3.337,8.738,0,12.066    c-17.468,17.468-26.709,30.754-28.655,35.337c0.648,2.782-0.119,5.82-2.278,7.979C266.554,307.009,264.37,307.846,262.185,307.846    L262.185,307.846z" data-original="#68DDC1" class="active-path" data-old_color="#8CA3E0"/>
		<path style="fill:#8DA3E0" d="M136.927,362.445c-13.141,0-28.621-6.989-41.626-19.985c-3.337-3.337-3.337-8.738,0-12.066    c3.337-3.337,8.738-3.337,12.066,0c14.251,14.251,31.514,18.278,37.427,12.373c3.328-3.337,8.73-3.337,12.066,0    c3.337,3.328,3.337,8.73,0,12.066C151.715,359.971,144.735,362.445,136.927,362.445" data-original="#68DDC1" class="active-path" data-old_color="#8CA3E0"/>
		<path style="fill:#8DA3E0" d="M126.085,456.32c-2.185,0-4.369-0.836-6.033-2.5c-17.801-17.801-31.206-42.718-18.577-55.373    c3.337-3.337,8.747-3.328,12.075-0.009c3.268,3.268,3.337,8.533,0.188,11.878c-0.939,2.927,3.012,16.068,18.381,31.437    c3.337,3.337,3.337,8.73,0,12.066C130.454,455.484,128.27,456.32,126.085,456.32" data-original="#68DDC1" class="active-path" data-old_color="#8CA3E0"/>
	</g>
</g></g> </svg>
