<?xml version="1.0"?>
<svg xmlns="http://www.w3.org/2000/svg" xmlns:xlink="http://www.w3.org/1999/xlink" version="1.1" id="Layer_1" x="0px" y="0px" viewBox="0 0 512 512" style="enable-background:new 0 0 512 512;" xml:space="preserve" width="512px" height="512px" class=""><g><polygon style="fill:#8860D0" points="256.002,43.425 276.003,83.954 320.729,90.452 288.366,121.999 296.005,166.544   256.002,145.513 215.998,166.544 223.638,121.999 191.274,90.452 235.999,83.954 " data-original="#F7B239" class="" data-old_color="#F7B239"/><polygon style="fill:#5AB9EA" points="45.436,160.537 81.387,187.926 124.33,173.838 109.391,216.493 136.06,252.981   90.876,251.954 64.415,288.593 51.429,245.304 8.406,231.46 45.563,205.732 " data-original="#2BA5F7" class="" data-old_color="#2BA5F7"/><polygon style="fill:#FF8DFF" points="466.567,160.537 430.616,187.926 387.673,173.838 402.612,216.493 375.943,252.981   421.127,251.954 447.587,288.593 460.574,245.304 503.597,231.46 466.439,205.732 " data-original="#F24C8F" class="" data-old_color="#F24C8F"/><g>
	<path style="fill:#FF8DFF" d="M375.752,43.338c-4.641,0-8.404-3.763-8.404-8.404v-8.757c0-4.641,3.763-8.404,8.404-8.404   c4.642,0,8.404,3.763,8.404,8.404v8.757C384.156,39.575,380.393,43.338,375.752,43.338z" data-original="#CC1B5B" class="active-path" data-old_color="#CC1B5B"/>
	<path style="fill:#FF8DFF" d="M375.752,88.125c-4.641,0-8.404-3.763-8.404-8.404v-8.757c0-4.641,3.763-8.404,8.404-8.404   c4.642,0,8.404,3.763,8.404,8.404v8.757C384.156,84.362,380.393,88.125,375.752,88.125z" data-original="#CC1B5B" class="active-path" data-old_color="#CC1B5B"/>
	<path style="fill:#FF8DFF" d="M402.524,61.353h-8.757c-4.641,0-8.404-3.763-8.404-8.404s3.763-8.404,8.404-8.404h8.757   c4.641,0,8.404,3.763,8.404,8.404S407.165,61.353,402.524,61.353z" data-original="#CC1B5B" class="active-path" data-old_color="#CC1B5B"/>
	<path style="fill:#FF8DFF" d="M357.736,61.353h-8.757c-4.641,0-8.404-3.763-8.404-8.404s3.763-8.404,8.404-8.404h8.757   c4.641,0,8.404,3.763,8.404,8.404S362.379,61.353,357.736,61.353z" data-original="#CC1B5B" class="active-path" data-old_color="#CC1B5B"/>
</g><g>
	<path style="fill:#5AB9EA" d="M105.722,83.4c-4.641,0-8.404-3.763-8.404-8.404V66.24c0-4.642,3.763-8.404,8.404-8.404   s8.404,3.763,8.404,8.404v8.756C114.127,79.637,110.364,83.4,105.722,83.4z" data-original="#2BA5F7" class="" data-old_color="#2BA5F7"/>
	<path style="fill:#5AB9EA" d="M105.722,128.187c-4.641,0-8.404-3.763-8.404-8.404v-8.756c0-4.641,3.763-8.404,8.404-8.404   s8.404,3.763,8.404,8.404v8.756C114.127,124.424,110.364,128.187,105.722,128.187z" data-original="#2BA5F7" class="" data-old_color="#2BA5F7"/>
	<path style="fill:#5AB9EA" d="M132.495,101.416h-8.756c-4.641,0-8.404-3.763-8.404-8.404s3.763-8.404,8.404-8.404h8.756   c4.641,0,8.404,3.763,8.404,8.404S137.136,101.416,132.495,101.416z" data-original="#2BA5F7" class="" data-old_color="#2BA5F7"/>
	<path style="fill:#5AB9EA" d="M87.708,101.416h-8.756c-4.641,0-8.404-3.763-8.404-8.404s3.763-8.404,8.404-8.404h8.756   c4.641,0,8.404,3.763,8.404,8.404S92.349,101.416,87.708,101.416z" data-original="#2BA5F7" class="" data-old_color="#2BA5F7"/>
</g><path d="M215.999,174.948c-1.744,0-3.477-0.541-4.941-1.606c-2.589-1.88-3.884-5.066-3.344-8.22l6.893-40.19l-29.199-28.462  c-2.29-2.233-3.115-5.573-2.127-8.615c0.988-3.042,3.618-5.26,6.784-5.72l40.354-5.864l18.046-36.566  c1.416-2.869,4.338-4.685,7.537-4.685s6.121,1.816,7.537,4.685l18.046,36.566l40.354,5.864c3.166,0.459,5.796,2.677,6.784,5.72  c0.988,3.042,0.164,6.382-2.127,8.615l-29.199,28.462l6.893,40.19c0.54,3.153-0.755,6.34-3.344,8.22  c-2.586,1.88-6.018,2.129-8.85,0.64l-36.093-18.975l-36.092,18.975C218.679,174.63,217.336,174.948,215.999,174.948z   M256.001,137.109c1.344,0,2.686,0.322,3.911,0.965l24.932,13.106l-4.761-27.76c-0.467-2.726,0.436-5.509,2.417-7.44l20.17-19.66  l-27.874-4.051c-2.738-0.398-5.103-2.117-6.328-4.598l-12.465-25.258l-12.465,25.258c-1.224,2.48-3.59,4.2-6.328,4.598  l-27.874,4.051l20.17,19.66c1.981,1.931,2.886,4.713,2.417,7.44l-4.761,27.76l24.931-13.106  C253.315,137.431,254.658,137.109,256.001,137.109z" data-original="#000000" class=""/><path d="M64.416,296.998c-0.464,0-0.931-0.038-1.398-0.117c-3.154-0.532-5.733-2.808-6.653-5.873l-11.717-39.057l-38.817-12.49  c-3.046-0.981-5.27-3.604-5.74-6.768c-0.468-3.165,0.899-6.321,3.529-8.142l33.525-23.213l-0.115-40.776  c-0.009-3.199,1.799-6.126,4.664-7.551c2.865-1.423,6.29-1.097,8.834,0.84l32.437,24.711l38.744-12.711  c3.038-0.997,6.382-0.183,8.621,2.102c2.239,2.285,2.989,5.642,1.931,8.661l-13.475,38.487l24.061,32.921  c1.888,2.583,2.146,6.013,0.665,8.849c-1.481,2.835-4.459,4.584-7.641,4.513l-40.766-0.927l-23.874,33.056  C69.633,295.724,67.086,296.998,64.416,296.998z M27.191,228.676l26.812,8.627c2.633,0.847,4.681,2.936,5.475,5.586l8.093,26.978  l16.491-22.833c1.619-2.242,4.24-3.567,7.004-3.482l28.158,0.64l-16.621-22.739c-1.633-2.233-2.061-5.127-1.146-7.738l9.31-26.584  l-26.762,8.78c-2.628,0.863-5.512,0.375-7.713-1.301l-22.405-17.069l0.08,28.166c0.008,2.767-1.346,5.36-3.62,6.934L27.191,228.676z  " data-original="#000000" class=""/><path d="M447.587,296.998c-2.67,0-5.216-1.274-6.812-3.484l-23.874-33.056l-40.766,0.927c-3.17,0.092-6.161-1.676-7.641-4.513  s-1.223-6.266,0.664-8.849l24.061-32.921l-13.479-38.486c-1.057-3.019-0.308-6.377,1.931-8.661c2.239-2.285,5.579-3.1,8.621-2.102  l38.745,12.711l32.437-24.711c2.545-1.939,5.969-2.264,8.834-0.84c2.864,1.424,4.672,4.351,4.664,7.551l-0.115,40.776l33.525,23.213  c2.63,1.821,3.998,4.977,3.529,8.142c-0.468,3.165-2.694,5.789-5.74,6.768l-38.817,12.49l-11.717,39.057  c-0.919,3.065-3.499,5.341-6.653,5.873C448.519,296.96,448.05,296.998,447.587,296.998z M421.127,243.55  c2.695,0,5.23,1.293,6.813,3.484l16.491,22.833l8.093-26.978c0.795-2.65,2.843-4.739,5.475-5.586l26.812-8.627l-23.157-16.035  c-2.274-1.574-3.627-4.167-3.62-6.934l0.08-28.166l-22.405,17.069c-2.2,1.676-5.084,2.163-7.713,1.301l-26.762-8.78l9.31,26.584  c0.914,2.611,0.485,5.504-1.146,7.738l-16.621,22.739l28.158-0.64C421,243.55,421.064,243.55,421.127,243.55z" data-original="#000000" class=""/><path style="fill:#8860D0" d="M285.816,494.229c-0.289,0-0.58-0.015-0.874-0.045c-4.617-0.477-7.973-4.607-7.496-9.224  c6.631-64.157,37.615-113.01,62.439-142.694c26.854-32.112,51.95-48.987,53.005-49.689c3.862-2.571,9.081-1.526,11.653,2.338  c2.572,3.864,1.526,9.081-2.338,11.653c-0.504,0.34-24.597,16.673-49.783,46.907c-23.171,27.814-52.086,73.504-58.257,133.213  C293.719,491.012,290.069,494.229,285.816,494.229z" data-original="#F7B239" class="" data-old_color="#F7B239"/><path style="fill:#FF8DFF" d="M226.186,494.229c-4.254,0-7.902-3.217-8.35-7.54c-11.869-114.843-107.08-179.481-108.041-180.121  c-3.864-2.573-4.91-7.79-2.338-11.653c2.573-3.864,7.79-4.91,11.653-2.338c1.056,0.703,26.151,17.578,53.005,49.689  c24.824,29.684,55.809,78.537,62.439,142.694c0.477,4.617-2.879,8.747-7.496,9.224C226.768,494.214,226.475,494.229,226.186,494.229  z" data-original="#CC1B5B" class="active-path" data-old_color="#CC1B5B"/><g>
	<path style="fill:#5AB9EA" d="M256.001,442.077c-4.642,0-8.404-3.763-8.404-8.404V215.138c0-4.641,3.763-8.404,8.404-8.404   c4.641,0,8.404,3.763,8.404,8.404v218.536C264.405,438.315,260.642,442.077,256.001,442.077z" data-original="#2BA5F7" class="" data-old_color="#2BA5F7"/>
	<circle style="fill:#5AB9EA" cx="449.168" cy="119.287" r="8.404" data-original="#2BA5F7" class="" data-old_color="#2BA5F7"/>
</g><circle style="fill:#FF8DFF" cx="312.03" cy="294.077" r="8.404" data-original="#CC1B5B" class="active-path" data-old_color="#CC1B5B"/><circle style="fill:#8860D0" cx="195.489" cy="233.061" r="8.404" data-original="#F7B239" class="" data-old_color="#F7B239"/></g> </svg>
