<?xml version="1.0"?>
<svg xmlns="http://www.w3.org/2000/svg" xmlns:xlink="http://www.w3.org/1999/xlink" version="1.1" id="Capa_1" x="0px" y="0px" viewBox="0 0 512 512" style="enable-background:new 0 0 512 512;" xml:space="preserve" width="512px" height="512px" class=""><g><g>
	<g>
		<path style="fill:#EBEEEE" d="M459.148,439.554L304,177.394V32c0-4.418-3.578-8-8-8s-8,3.582-8,8h-64c0-4.418-3.578-8-8-8    s-8,3.582-8,8v145.394L52.852,439.554c-8.898,15.027-9.039,33.055-0.391,48.223S76.695,512,94.156,512h323.687    c17.461,0,33.047-9.055,41.695-24.223C468.187,472.609,468.047,454.582,459.148,439.554z" data-original="#B3F4FF" class="" data-old_color="#EAEEEE"/>
	</g>
	<g>
		<path style="fill:#D8E4EA" d="M256,32h-32c0-4.418-3.578-8-8-8s-8,3.582-8,8v145.394L52.852,439.554    c-8.898,15.027-9.039,33.055-0.391,48.223S76.695,512,94.156,512H256V32z" data-original="#53DCFF" class="" data-old_color="#53DCFF"/>
	</g>
	<g>
		<path style="fill:#BC75FF" d="M431.617,455.851l-44.937-75.926c-1.438-2.434-4.055-3.926-6.883-3.926H132.203    c-2.828,0-5.445,1.492-6.883,3.926l-44.93,75.926c-3.008,5.078-3.062,10.934-0.133,16.082c2.938,5.125,8,8.066,13.898,8.066    h323.687c5.898,0,10.961-2.941,13.906-8.082C434.672,466.789,434.625,460.933,431.617,455.851z" data-original="#00E68C" class="active-path" data-old_color="#BC75ff"/>
	</g>
	<g>
		<path style="fill:#BC75FF" d="M256,376H132.203c-2.828,0-5.445,1.492-6.883,3.926l-44.93,75.926    c-3.008,5.078-3.062,10.934-0.133,16.082c2.938,5.125,8,8.066,13.898,8.066H256V376z" data-original="#00BEBE" class="" data-old_color="#bc75ff"/>
	</g>
	<g>
		<g>
			<path style="fill:#5C546A;" d="M280,264h-48c-4.422,0-8-3.582-8-8s3.578-8,8-8h48c4.422,0,8,3.582,8,8S284.422,264,280,264z" data-original="#5C546A" class=""/>
		</g>
	</g>
	<g>
		<g>
			<path style="fill:#5C546A;" d="M280,304h-48c-4.422,0-8-3.582-8-8s3.578-8,8-8h48c4.422,0,8,3.582,8,8S284.422,304,280,304z" data-original="#5C546A" class=""/>
		</g>
	</g>
	<g>
		<g>
			<path style="fill:#5C546A;" d="M280,344h-48c-4.422,0-8-3.582-8-8s3.578-8,8-8h48c4.422,0,8,3.582,8,8S284.422,344,280,344z" data-original="#5C546A" class=""/>
		</g>
	</g>
	<g>
		<circle style="fill:#FFFFFF;" cx="288" cy="432" r="16" data-original="#FFFFFF" class=""/>
	</g>
	<g>
		<circle style="fill:#BC75FF" cx="200" cy="408" r="16" data-original="#00E68C" class="active-path" data-old_color="#BC75ff"/>
	</g>
	<g>
		<circle style="fill:#FFFFFF;" cx="344" cy="416" r="8" data-original="#FFFFFF" class=""/>
	</g>
	<g>
		<circle style="fill:#BC75FF" cx="224" cy="440" r="8" data-original="#00E68C" class="active-path" data-old_color="#BC75ff"/>
	</g>
	<g>
		<circle style="fill:#BC75FF" cx="152" cy="424" r="8" data-original="#00E68C" class="active-path" data-old_color="#BC75ff"/>
	</g>
	<g>
		<path style="fill:#C5CDD2" d="M304,0l-96,0c-8.837,0-16,7.163-16,16v0c0,8.837,7.163,16,16,16h96c8.837,0,16-7.163,16-16v0    C320,7.163,312.836,0,304,0z" data-original="#44BEF1" class="" data-old_color="#C7CFD4"/>
	</g>
</g></g> </svg>
