<?xml version="1.0" encoding="UTF-8" standalone="no"?>
<!-- Created with Inkscape (http://www.inkscape.org/) -->

<svg
   xmlns:dc="http://purl.org/dc/elements/1.1/"
   xmlns:cc="http://creativecommons.org/ns#"
   xmlns:rdf="http://www.w3.org/1999/02/22-rdf-syntax-ns#"
   xmlns:svg="http://www.w3.org/2000/svg"
   xmlns="http://www.w3.org/2000/svg"
   xmlns:sodipodi="http://sodipodi.sourceforge.net/DTD/sodipodi-0.dtd"
   xmlns:inkscape="http://www.inkscape.org/namespaces/inkscape"
   width="226.77165"
   height="226.77165"
   viewBox="0 0 60 60"
   version="1.1"
   id="svg8"
   inkscape:version="0.92.2 5c3e80d, 2017-08-06"
   sodipodi:docname="logo-white.svg">
  <defs
     id="defs2" />
  <sodipodi:namedview
     id="base"
     pagecolor="#ffffff"
     bordercolor="#666666"
     borderopacity="1.0"
     inkscape:pageopacity="0.0"
     inkscape:pageshadow="2"
     inkscape:zoom="2.8"
     inkscape:cx="106.14372"
     inkscape:cy="104.47795"
     inkscape:document-units="mm"
     inkscape:current-layer="layer1"
     showgrid="false"
     units="px"
     inkscape:window-width="1280"
     inkscape:window-height="988"
     inkscape:window-x="1366"
     inkscape:window-y="0"
     inkscape:window-maximized="1" />
  <metadata
     id="metadata5">
    <rdf:RDF>
      <cc:Work
         rdf:about="">
        <dc:format>image/svg+xml</dc:format>
        <dc:type
           rdf:resource="http://purl.org/dc/dcmitype/StillImage" />
        <dc:title></dc:title>
      </cc:Work>
    </rdf:RDF>
  </metadata>
  <g
     inkscape:label="Layer 1"
     inkscape:groupmode="layer"
     id="layer1"
     transform="translate(0,-237)">
    <g
       aria-label="G"
       style="font-style:normal;font-variant:normal;font-weight:normal;font-stretch:normal;font-size:50.79999924px;line-height:1.25;font-family:'ONE DAY';-inkscape-font-specification:'ONE DAY';letter-spacing:-0.03704167px;word-spacing:0px;fill:#333333;fill-opacity:0.9748954;stroke:none;stroke-width:0.26458332"
       id="text817">
      <path
         d="m 39.273991,282.95096 q 0,0.95955 -0.779639,1.4993 -2.039055,1.37936 -4.198055,2.159 -1.979083,0.77964 -4.198056,1.0795 -0.719666,0.11995 -1.499305,0.17992 -0.719667,0.06 -1.499306,0.06 -4.258027,0 -7.976305,-1.55928 -3.658306,-1.61925 -6.477,-4.37797 -2.7587223,-2.81869 -4.3779723,-6.477 -1.5592777,-3.71828 -1.5592777,-7.97631 0,-4.19805 1.5592777,-7.91633 1.61925,-3.71828 4.3779723,-6.477 2.818694,-2.75872 6.477,-4.37797 3.718278,-1.61925 7.976305,-1.61925 6.177139,0 11.33475,3.41842 0.599722,0.4198 0.719667,1.13947 0.179916,0.65969 -0.239889,1.31939 -0.419806,0.59972 -1.139472,0.77964 -0.659695,0.11994 -1.319389,-0.29987 -4.258028,-2.87866 -9.355667,-2.87866 -3.478389,0 -6.596944,1.37936 -3.058583,1.31939 -5.337528,3.59833 -2.278944,2.27895 -3.658305,5.3975 -1.319389,3.05859 -1.319389,6.53697 0,3.47839 1.319389,6.59695 1.379361,3.05858 3.658305,5.33753 2.278945,2.27894 5.337528,3.6583 3.118555,1.31939 6.596944,1.31939 1.259417,0 2.458861,-0.17992 1.859139,-0.29986 3.538361,-0.89958 0.659695,-0.29986 1.319389,-0.59972 0.719667,-0.35983 1.379361,-0.77964 v -3.35844 q 0,-0.71967 0.479778,-1.19945 0.53975,-0.53975 1.259417,-0.53975 0.719666,0 1.199444,0.53975 0.53975,0.47978 0.53975,1.19945 z m -1.739194,-14.09348 q 0.719666,0 1.199444,0.53975 0.53975,0.53975 0.53975,1.25942 0,0.71967 -0.53975,1.25942 -0.479778,0.47977 -1.199444,0.47977 h -4.677834 q -0.719666,0 -1.259416,-0.47977 -0.479778,-0.53975 -0.479778,-1.25942 0,-0.71967 0.479778,-1.25942 0.53975,-0.53975 1.259416,-0.53975 z"
         style="font-style:normal;font-variant:normal;font-weight:bold;font-stretch:normal;font-size:59.97222137px;font-family:Break;-inkscape-font-specification:'Break Bold';fill:#ffffff;fill-opacity:0.9748954;stroke-width:0.26458332"
         id="path827"
         inkscape:connector-curvature="0" />
    </g>
    <path
       style="opacity:1;fill:none;fill-opacity:1;stroke:#ffffff;stroke-width:2.71399999;stroke-linecap:round;stroke-miterlimit:4;stroke-dasharray:none;stroke-opacity:1"
       id="path821"
       sodipodi:type="arc"
       sodipodi:cx="-267.11911"
       sodipodi:cy="29.880861"
       sodipodi:rx="27.893145"
       sodipodi:ry="27.893145"
       sodipodi:start="5.2932177"
       sodipodi:end="4.0876476"
       sodipodi:open="true"
       d="m -251.81367,6.5619635 a 27.893145,27.893145 0 0 1 11.50576,31.0122105 27.893145,27.893145 0 0 1 -26.19882,20.193109 27.893145,27.893145 0 0 1 -27.06001,-19.023552 27.893145,27.893145 0 0 1 10.13328,-31.4874012"
       transform="rotate(-90)" />
  </g>
</svg>
