<?xml version="1.0"?>
<svg xmlns="http://www.w3.org/2000/svg" xmlns:xlink="http://www.w3.org/1999/xlink" version="1.1" id="Capa_1" x="0px" y="0px" viewBox="0 0 511.999 511.999" style="enable-background:new 0 0 511.999 511.999;" xml:space="preserve" width="512px" height="512px" class=""><g><path style="fill:#AFB5BC" d="M423.243,144.313H308.714H204.523H88.761c-7.165,0-13.028,5.862-13.028,13.028v276.987  c0,7.165,5.862,13.028,13.028,13.028h334.482c7.165,0,13.028-5.862,13.028-13.028V157.341  C436.271,150.175,430.409,144.313,423.243,144.313z" data-original="#AFB5BC" class=""/><path style="fill:#969A9F" d="M94.829,434.327V157.341c0-7.165,5.862-13.028,13.028-13.028H88.76  c-7.165,0-13.028,5.862-13.028,13.028v276.987c0,7.165,5.862,13.028,13.028,13.028h19.097  C100.692,447.355,94.829,441.493,94.829,434.327z" data-original="#969A9F" class=""/><path style="fill:#FFFFFF" d="M394.774,183.059h-86.061h-104.19h-87.294c-1.781,0-3.225,1.444-3.225,3.225v219.986  c0,1.781,1.444,3.225,3.225,3.225h277.546c1.781,0,3.225-1.444,3.225-3.225V186.284C398,184.503,396.556,183.059,394.774,183.059z" data-original="#FFFFFF" class=""/><path style="fill:#E4EAF8" d="M132.74,406.27V186.284c0-1.781,1.444-3.225,3.225-3.225h-18.736c-1.781,0-3.225,1.444-3.225,3.225  v219.986c0,1.781,1.444,3.225,3.225,3.225h18.736C134.184,409.495,132.74,408.051,132.74,406.27z" data-original="#E4EAF8" class=""/><path style="fill:#8E75BD" d="M394.774,183.059h-86.061h-104.19H149.76v41.515H398v-38.289  C398,184.503,396.556,183.059,394.774,183.059z" data-original="#ABFFDB" class="" data-old_color="#ABFFDB"/><path style="fill:#E4EAF8" d="M457.994,504.5H54.009c-6.6,0-12.001-5.4-12.001-12.001v-33.143c0-6.6,5.4-12.001,12.001-12.001  h403.985c6.6,0,12.001,5.4,12.001,12.001v33.143C469.995,499.099,464.595,504.5,457.994,504.5z" data-original="#E4EAF8" class=""/><path style="fill:#C2C7D0" d="M458.753,485.762H53.251c-6.183,0-11.242-5.058-11.242-11.242v18.736  c0,6.183,5.058,11.242,11.242,11.242h405.503c6.183,0,11.242-5.058,11.242-11.242v-18.736  C469.995,480.704,464.936,485.762,458.753,485.762z" data-original="#C2C7D0"/><path style="fill:#FFFFFF" d="M184.936,447.355v15.544c0,7.165,5.862,13.028,13.028,13.028H314.04  c7.165,0,13.028-5.862,13.028-13.028v-15.544H184.936z" data-original="#FFFFFF" class=""/><path style="fill:#612ACC" d="M157.829,183.059h-40.6c-1.781,0-3.225,1.444-3.225,3.225v38.289h43.826V183.059z" data-original="#6DC296" class="active-path" data-old_color="#6129CC"/><path style="fill:#5214C3" d="M135.965,183.059h-18.736c-1.781,0-3.225,1.444-3.225,3.225v38.289h18.736v-38.289  C132.74,184.503,134.184,183.059,135.965,183.059z" data-original="#5FA77E" class="" data-old_color="#5FA77E"/><g>
	<path style="fill:#8E75BD" d="M307.714,183.17v86.623l46.389,38.935c3.317,2.784,8.374,0.426,8.374-3.904l0,0   c0-36.694-12.991-72.204-36.67-100.235L307.714,183.17z" data-original="#ABFFDB" class="" data-old_color="#ABFFDB"/>
	<path style="fill:#8E75BD" d="M205.523,183.17v86.623l-46.389,38.935c-3.317,2.784-8.374,0.426-8.374-3.904l0,0   c0-36.694,12.991-72.204,36.67-100.235L205.523,183.17z" data-original="#ABFFDB" class="" data-old_color="#ABFFDB"/>
</g><g>
	<path style="fill:#5725BF" d="M327.715,267.443V206.9c-0.629-0.775-1.263-1.546-1.908-2.31l-18.093-21.419v86.623l46.389,38.935   c3.317,2.784,8.374,0.426,8.374-3.904l0,0c0-1.989-0.046-3.974-0.122-5.956l-32.84-27.564   C328.374,270.347,327.715,268.933,327.715,267.443z" data-original="#92E0C0" class="" data-old_color="#92E0C0"/>
	<path style="fill:#5725BF" d="M205.523,206.9V183.17l-18.093,21.419c-23.679,28.032-36.67,63.541-36.67,100.236l0,0   c0,4.33,5.058,6.688,8.374,3.904l11.748-9.861C172.17,265.299,184.31,233.017,205.523,206.9z" data-original="#92E0C0" class="" data-old_color="#92E0C0"/>
</g><path style="fill:#ABB0B7" d="M215.46,276.605v24.328c0,4.399,3.599,7.998,7.998,7.998c11.784,0,21.358,0,33.16,0  c11.828,0,20.791,0,33.16,0c4.399,0,7.998-3.599,7.998-7.998v-24.328C287.515,276.605,223.327,276.605,215.46,276.605z" data-original="#ABB0B7" class=""/><path style="fill:#969A9F" d="M235.461,300.933v-24.328H215.46v24.328c0,4.399,3.599,7.998,7.998,7.998c7.329,0,12.995,0,20.001,0  C239.061,308.932,235.461,305.332,235.461,300.933z" data-original="#969A9F" class=""/><path style="fill:#8860D0" d="M260.435,9.762c-1.651-3.015-5.982-3.015-7.633,0l-48.279,88.161h104.191L260.435,9.762z" data-original="#FEA82F" class="" data-old_color="#FEA82F"/><path style="fill:#5725BF" d="M260.435,9.762c-1.651-3.015-5.982-3.015-7.633,0l-48.279,88.161h20.001l42.095-76.869L260.435,9.762  z" data-original="#FF8031" class="" data-old_color="#5725C0"/><path style="fill:#FFFFFF" d="M204.523,273.005c0,2.541,2.06,4.6,4.6,4.6c9.135,0,83.274,0,94.565,0  c2.775,0,5.025-2.25,5.025-5.025V97.923h-104.19V273.005z" data-original="#FFFFFF" class=""/><path style="fill:#E4EAF8" d="M224.524,273.005V97.923h-20.001v175.082c0,2.541,2.06,4.6,4.6,4.6c11.504,0,12.773,0,20.001,0  C226.584,277.605,224.524,275.546,224.524,273.005z" data-original="#E4EAF8" class=""/><circle style="fill:#8E75BD" cx="256.615" cy="150.069" r="26.122" data-original="#FFC850" class="" data-old_color="#8D74BD"/><path style="fill:#8860D0" d="M250.503,150.071c0-10.881,6.656-20.204,16.117-24.129c-3.081-1.278-6.457-1.987-10.001-1.987  c-14.424,0-26.117,11.693-26.117,26.118c0,14.424,11.693,26.118,26.117,26.118c3.543,0,6.92-0.709,10.001-1.987  C257.158,170.275,250.503,160.953,250.503,150.071z" data-original="#FEA82F" class="" data-old_color="#FEA82F"/><g>
	<path style="fill:#5725BF" d="M212.678,340.705v37.454c0,4.143,3.357,7.5,7.5,7.5c4.143,0,7.5-3.357,7.5-7.5v-37.454   c0-4.143-3.357-7.5-7.5-7.5C216.036,333.204,212.678,336.561,212.678,340.705z" data-original="#FF8031" class="" data-old_color="#5725C0"/>
	<path style="fill:#5725BF" d="M256.616,333.204c-4.143,0-7.5,3.357-7.5,7.5v37.454c0,4.143,3.357,7.5,7.5,7.5s7.5-3.357,7.5-7.5   v-37.454C264.117,336.561,260.758,333.204,256.616,333.204z" data-original="#FF8031" class="" data-old_color="#5725C0"/>
	<path style="fill:#5725BF" d="M285.552,340.705v37.454c0,4.143,3.357,7.5,7.5,7.5c4.143,0,7.5-3.357,7.5-7.5v-37.454   c0-4.143-3.357-7.5-7.5-7.5C288.909,333.204,285.552,336.561,285.552,340.705z" data-original="#FF8031" class="" data-old_color="#5725C0"/>
</g><path style="fill:#474D54" d="M457.992,439.855h-14.98c0.492-1.759,0.756-3.613,0.756-5.527V317.434c0-4.143-3.357-7.5-7.5-7.5  c-4.143,0-7.5,3.357-7.5,7.5v116.893c0,3.048-2.479,5.527-5.527,5.527H88.758c-3.047,0-5.526-2.479-5.526-5.527V157.341  c0-3.048,2.479-5.527,5.526-5.527H197.02v23.745h-79.794c-5.914,0-10.727,4.812-10.727,10.726v38.289c0,4.143,3.357,7.5,7.5,7.5  h45.425c-11.071,22.181-17.027,46.771-17.166,71.851c-0.002,0.3-0.003,0.6-0.003,0.9c0,4.95,2.787,9.326,7.273,11.418  c0.063,0.03,0.127,0.058,0.191,0.087c0.018,0.008,0.037,0.016,0.055,0.024c0.05,0.022,0.101,0.044,0.151,0.065  c0.014,0.006,0.029,0.012,0.043,0.018c1.595,0.673,3.263,1.005,4.916,1.005c0.722,0,1.441-0.063,2.15-0.188  c0.752-0.133,1.493-0.336,2.214-0.608c0.011-0.004,0.023-0.008,0.034-0.013c0.059-0.022,0.117-0.045,0.176-0.068  c0.015-0.006,0.03-0.012,0.045-0.018c0.188-0.075,0.374-0.155,0.558-0.24c0.01-0.005,0.019-0.009,0.029-0.013  c0.048-0.022,0.096-0.045,0.144-0.068c0.028-0.013,0.057-0.027,0.085-0.041c0.044-0.021,0.087-0.043,0.131-0.065  c0.031-0.016,0.062-0.031,0.092-0.047c0.042-0.021,0.084-0.043,0.126-0.065c0.035-0.019,0.07-0.038,0.106-0.057  c0.051-0.028,0.103-0.056,0.154-0.084c0.055-0.03,0.109-0.061,0.164-0.092c0.03-0.017,0.059-0.035,0.088-0.052  c0.044-0.026,0.088-0.052,0.132-0.078c0.031-0.019,0.062-0.038,0.093-0.057c0.042-0.026,0.084-0.052,0.125-0.078  c0.032-0.02,0.063-0.04,0.095-0.06c0.045-0.029,0.09-0.058,0.135-0.088c0.025-0.017,0.051-0.033,0.076-0.05  c0.07-0.047,0.139-0.094,0.209-0.143c0.015-0.011,0.031-0.022,0.046-0.033c0.055-0.039,0.11-0.078,0.165-0.118  c0.025-0.018,0.049-0.036,0.074-0.055c0.045-0.034,0.091-0.068,0.136-0.102c0.026-0.02,0.052-0.039,0.077-0.059  c0.046-0.036,0.092-0.072,0.138-0.108c0.023-0.018,0.046-0.036,0.069-0.055c0.067-0.054,0.134-0.109,0.201-0.165l38.381-32.215  c0.015,0.012,0.03,0.024,0.044,0.037c0.031,0.026,0.062,0.052,0.093,0.077c0.039,0.032,0.078,0.063,0.118,0.095  c0.028,0.022,0.056,0.045,0.085,0.068c0.064,0.051,0.129,0.1,0.195,0.149c0.023,0.017,0.047,0.034,0.07,0.052  c0.048,0.036,0.097,0.071,0.145,0.106c0.026,0.019,0.053,0.038,0.079,0.056c0.049,0.035,0.098,0.068,0.148,0.102  c0.024,0.016,0.048,0.033,0.072,0.049c0.072,0.048,0.144,0.096,0.217,0.143c0.008,0.005,0.015,0.01,0.023,0.014  c0.067,0.043,0.134,0.085,0.202,0.126c0.023,0.014,0.046,0.028,0.069,0.042c0.056,0.034,0.112,0.067,0.168,0.099  c0.023,0.013,0.046,0.027,0.069,0.04c0.068,0.039,0.137,0.078,0.206,0.115c0.008,0.005,0.017,0.009,0.025,0.014  c0.079,0.043,0.159,0.085,0.239,0.126c0.018,0.009,0.037,0.019,0.056,0.028c0.062,0.032,0.125,0.063,0.188,0.094  c0.022,0.011,0.044,0.021,0.066,0.032c0.069,0.033,0.138,0.065,0.207,0.097c0.013,0.006,0.025,0.012,0.037,0.017  c0.084,0.038,0.169,0.075,0.254,0.112c0.01,0.004,0.02,0.008,0.029,0.012c0.072,0.03,0.145,0.06,0.218,0.089  c0.024,0.009,0.047,0.019,0.071,0.028c0.066,0.026,0.132,0.051,0.198,0.075c0.019,0.007,0.039,0.015,0.058,0.022  c0.17,0.062,0.343,0.121,0.516,0.175c0.024,0.008,0.049,0.015,0.073,0.022c0.064,0.02,0.129,0.039,0.194,0.058  c0.025,0.007,0.05,0.014,0.075,0.021c0.076,0.021,0.151,0.042,0.228,0.062c0.012,0.003,0.025,0.007,0.037,0.01  c0.088,0.023,0.176,0.044,0.265,0.065c0.023,0.005,0.047,0.011,0.071,0.016c0.067,0.015,0.134,0.03,0.201,0.044  c0.027,0.006,0.054,0.011,0.082,0.017c0.069,0.014,0.138,0.027,0.207,0.04c0.023,0.004,0.045,0.009,0.068,0.012  c0.089,0.016,0.178,0.031,0.268,0.045c0.022,0.003,0.044,0.006,0.067,0.01c0.068,0.01,0.136,0.02,0.205,0.029  c0.034,0.004,0.068,0.009,0.102,0.013c0.058,0.007,0.116,0.014,0.174,0.02c0.036,0.004,0.072,0.008,0.108,0.011  c0.011,0.001,0.021,0.002,0.032,0.003v16.884c0,8.547,6.952,15.499,15.499,15.499h25.662c0.071,4.081,3.4,7.366,7.498,7.366  c4.098,0,7.427-3.285,7.498-7.366h25.662c8.547,0,15.499-6.952,15.499-15.499v-16.928c0.03-0.004,0.059-0.008,0.089-0.012  c0.059-0.008,0.117-0.016,0.176-0.025c0.04-0.006,0.081-0.012,0.121-0.019c0.055-0.009,0.109-0.018,0.164-0.027  c0.037-0.006,0.074-0.013,0.111-0.019c0.084-0.015,0.167-0.031,0.25-0.048c0.031-0.006,0.061-0.013,0.092-0.019  c0.062-0.013,0.124-0.026,0.185-0.04c0.034-0.008,0.068-0.016,0.102-0.024c0.06-0.014,0.121-0.029,0.181-0.044  c0.03-0.008,0.06-0.015,0.089-0.022c0.084-0.022,0.168-0.045,0.252-0.068c0.029-0.008,0.058-0.017,0.086-0.025  c0.062-0.018,0.123-0.036,0.184-0.055c0.03-0.009,0.06-0.018,0.089-0.028c0.071-0.022,0.141-0.045,0.212-0.069  c0.017-0.006,0.033-0.011,0.05-0.017c0.085-0.029,0.17-0.059,0.254-0.09c0.025-0.009,0.049-0.018,0.074-0.027  c0.065-0.024,0.129-0.049,0.193-0.074c0.024-0.01,0.049-0.019,0.073-0.029c0.084-0.034,0.169-0.068,0.252-0.103h0.001  c0.085-0.036,0.168-0.073,0.252-0.11c0.023-0.01,0.046-0.021,0.069-0.031c0.064-0.029,0.128-0.059,0.191-0.089  c0.021-0.01,0.042-0.02,0.064-0.03c0.084-0.041,0.167-0.082,0.249-0.124c0.002-0.001,0.005-0.002,0.007-0.004  c0.079-0.041,0.158-0.082,0.236-0.125c0.019-0.01,0.039-0.021,0.058-0.032c0.069-0.038,0.137-0.076,0.206-0.115  c0.012-0.007,0.024-0.014,0.037-0.021c0.083-0.048,0.165-0.096,0.246-0.146c0.006-0.004,0.012-0.008,0.018-0.011  c0.073-0.045,0.146-0.09,0.218-0.136c0.016-0.01,0.032-0.02,0.047-0.03c0.076-0.049,0.152-0.099,0.228-0.15  c0.001,0,0.001-0.001,0.002-0.001c0.081-0.055,0.161-0.111,0.241-0.167c0.007-0.005,0.014-0.01,0.021-0.015  c0.07-0.05,0.14-0.101,0.209-0.152c0.011-0.008,0.023-0.017,0.034-0.026c0.153-0.115,0.303-0.233,0.451-0.354  c0.007-0.006,0.015-0.012,0.022-0.018c0.033-0.028,0.067-0.055,0.1-0.083l38.516,32.328c0.067,0.056,0.134,0.111,0.201,0.165  c0.023,0.018,0.045,0.036,0.068,0.054c0.046,0.037,0.092,0.073,0.139,0.109c0.025,0.02,0.051,0.039,0.076,0.058  c0.046,0.035,0.093,0.07,0.139,0.104c0.024,0.018,0.048,0.035,0.071,0.053c0.052,0.038,0.105,0.076,0.158,0.113  c0.018,0.013,0.036,0.026,0.055,0.039c0.068,0.047,0.136,0.094,0.204,0.14c0.028,0.019,0.055,0.037,0.083,0.055  c0.044,0.029,0.087,0.058,0.131,0.086c0.031,0.02,0.063,0.04,0.095,0.06c0.04,0.025,0.081,0.051,0.121,0.076  c0.033,0.02,0.066,0.04,0.099,0.06c0.042,0.025,0.084,0.05,0.126,0.075c0.031,0.018,0.062,0.037,0.093,0.054  c0.068,0.039,0.137,0.078,0.206,0.116c0.035,0.019,0.07,0.038,0.105,0.057c0.037,0.02,0.074,0.04,0.111,0.06  c0.04,0.021,0.08,0.041,0.12,0.062c0.034,0.017,0.068,0.035,0.103,0.052c0.042,0.021,0.084,0.042,0.126,0.062  c0.029,0.014,0.057,0.027,0.086,0.041c0.047,0.022,0.094,0.045,0.141,0.066c0.017,0.008,0.035,0.016,0.052,0.024  c0.114,0.052,0.229,0.103,0.344,0.151c0.006,0.003,0.013,0.005,0.019,0.008c0.056,0.024,0.113,0.046,0.169,0.069  c0.017,0.007,0.034,0.014,0.052,0.021c0.055,0.022,0.11,0.043,0.166,0.064c0.018,0.007,0.036,0.014,0.054,0.021  c0.058,0.022,0.116,0.043,0.174,0.064c0.005,0.002,0.01,0.003,0.014,0.005c0.201,0.072,0.403,0.138,0.607,0.199  c0.005,0.001,0.009,0.003,0.014,0.004c0.066,0.02,0.132,0.039,0.198,0.057l0.019,0.005c1.084,0.303,2.202,0.457,3.327,0.457  c1.437,0,2.885-0.251,4.286-0.758c0.005-0.002,0.01-0.004,0.015-0.006c0.14-0.051,0.28-0.104,0.42-0.161l0,0  c0.064-0.026,0.128-0.052,0.192-0.079c0.017-0.007,0.034-0.014,0.051-0.022c0.048-0.021,0.096-0.042,0.145-0.063  c0.019-0.008,0.038-0.017,0.057-0.025c0.064-0.028,0.127-0.057,0.19-0.087c4.486-2.092,7.273-6.467,7.273-11.418  c0-0.3-0.001-0.6-0.003-0.9c-0.139-25.081-6.095-49.669-17.166-71.851h44.191c4.143,0,7.5-3.357,7.5-7.5v-38.289  c0-5.913-4.811-10.726-10.726-10.726H316.21v-23.745h107.027c3.048,0,5.527,2.479,5.527,5.527v125.092c0,4.143,3.357,7.5,7.5,7.5  c4.143,0,7.5-3.357,7.5-7.5V157.341c0-11.319-9.21-20.528-20.528-20.528H316.212V98.023c0.009-0.594-0.053-1.193-0.19-1.784  c-0.007-0.032-0.016-0.065-0.023-0.097c-0.006-0.024-0.011-0.048-0.018-0.072c-0.169-0.665-0.427-1.295-0.76-1.876L267.012,6.159  C264.932,2.36,260.948,0,256.616,0c-4.331,0-8.314,2.36-10.396,6.159l-48.209,88.034c-0.333,0.581-0.591,1.211-0.76,1.876  c-0.006,0.024-0.012,0.048-0.018,0.072c-0.008,0.032-0.016,0.064-0.023,0.097c-0.136,0.591-0.198,1.19-0.19,1.784v38.788H88.758  c-11.319,0-20.527,9.21-20.527,20.528v276.987c0,1.914,0.264,3.768,0.756,5.527h-14.98c-10.753,0-19.501,8.749-19.501,19.501v33.143  c0,10.753,8.749,19.501,19.501,19.501h184.491c4.143,0,7.5-3.357,7.5-7.5s-3.357-7.5-7.5-7.5H54.007c-2.439,0-4.5-2.061-4.5-4.5  v-33.143c0-2.439,2.061-4.5,4.5-4.5h403.985c2.439,0,4.5,2.061,4.5,4.5v33.143c0,2.439-2.061,4.5-4.5,4.5H273.501  c-4.143,0-7.5,3.357-7.5,7.5s3.357,7.5,7.5,7.5h184.491c10.753,0,19.501-8.749,19.501-19.501v-33.143  C477.493,448.603,468.745,439.855,457.992,439.855z M180.698,199.749c-0.169,0.2-0.338,0.401-0.506,0.603  c-0.064,0.077-0.128,0.154-0.192,0.231c-0.105,0.126-0.21,0.252-0.314,0.379c-0.047,0.056-0.094,0.113-0.141,0.169  c-0.031,0.037-0.061,0.074-0.091,0.111c-0.078,0.094-0.155,0.188-0.232,0.283c-0.203,0.247-0.405,0.495-0.607,0.744  c-0.02,0.025-0.041,0.05-0.061,0.075c-3.825,4.723-7.369,9.643-10.622,14.73h-2.603v-26.514h23.132L180.698,199.749z   M179.843,226.303c0.018-0.029,0.037-0.058,0.055-0.088c0.096-0.153,0.193-0.306,0.289-0.459c0.067-0.105,0.133-0.21,0.2-0.315  c0.044-0.069,0.087-0.137,0.131-0.206c0.109-0.171,0.218-0.341,0.328-0.511c0.003-0.005,0.006-0.01,0.009-0.014  c2.776-4.304,5.777-8.469,8.969-12.446c0.022-0.027,0.043-0.054,0.065-0.08c0.129-0.16,0.257-0.32,0.387-0.479  c0.045-0.056,0.09-0.111,0.135-0.166c0.103-0.127,0.207-0.254,0.311-0.381c0.089-0.108,0.178-0.217,0.267-0.325  c0.068-0.082,0.135-0.165,0.203-0.246c0.12-0.145,0.24-0.289,0.36-0.433c0.039-0.047,0.078-0.094,0.117-0.141  c0.163-0.194,0.326-0.389,0.489-0.582l4.862-5.757v62.624l-39.669,33.297c0.009-0.258,0.019-0.516,0.03-0.774  C158.433,273.054,166.231,248.031,179.843,226.303z M121.501,217.073V190.56h28.826v26.514H121.501z M223.408,302.428  c-0.237-0.027-0.449-0.255-0.449-0.495v-16.827h17.672c0.02,0,0.04-0.001,0.06-0.001h7.2c0.02,0,0.04,0.001,0.06,0.001h1.164v17.325  h-25.66C223.439,302.431,223.423,302.43,223.408,302.428z M290.274,301.933c0,0.256-0.242,0.498-0.498,0.498h-25.66v-17.325h26.158  L290.274,301.933L290.274,301.933z M316.212,266.296v-62.623l4.862,5.756c0.16,0.189,0.319,0.379,0.478,0.568  c0.086,0.102,0.171,0.205,0.256,0.308c0.073,0.088,0.147,0.177,0.22,0.265c0.127,0.154,0.254,0.307,0.38,0.461  c0.024,0.03,0.049,0.059,0.073,0.089c4.147,5.062,7.983,10.441,11.434,16.028c0.028,0.045,0.055,0.09,0.083,0.135  c0.091,0.148,0.183,0.297,0.273,0.446c0.06,0.099,0.121,0.198,0.181,0.297c0.059,0.097,0.118,0.194,0.177,0.291  c12.978,21.474,20.353,46.03,21.252,71.275L316.212,266.296z M390.497,217.073H345.3c-3.253-5.089-6.798-10.01-10.626-14.735  c-0.007-0.009-0.014-0.017-0.021-0.026c-0.22-0.271-0.441-0.542-0.663-0.813c-0.07-0.085-0.14-0.17-0.21-0.255  c-0.081-0.098-0.162-0.196-0.243-0.293c-0.1-0.121-0.2-0.241-0.3-0.361c-0.064-0.077-0.129-0.154-0.193-0.231  c-0.17-0.203-0.34-0.406-0.511-0.608l-7.762-9.19h65.725L390.497,217.073L390.497,217.073z M256.617,18.407l44.595,81.435v170.262  h-37.095v-68.608c0-4.143-3.357-7.5-7.5-7.5s-7.5,3.357-7.5,7.5v68.608h-37.094V99.842L256.617,18.407z" data-original="#474D54" class=""/></g> </svg>
